<?xml version="1.0" standalone="no"?>
<!DOCTYPE svg PUBLIC "-//W3C//DTD SVG 20010904//EN"
 "http://www.w3.org/TR/2001/REC-SVG-20010904/DTD/svg10.dtd">
<svg version="1.0" xmlns="http://www.w3.org/2000/svg"
 width="500.000000pt" height="500.000000pt" viewBox="0 0 500.000000 500.000000"
 preserveAspectRatio="xMidYMid meet">

<g transform="translate(0.000000,500.000000) scale(0.100000,-0.100000)"
fill="#33CC80" stroke="none">
<path d="M780 2500 l0 -2180 290 0 290 0 0 990 0 990 385 0 385 0 0 265 0 265
-385 0 -385 0 0 665 0 665 435 0 435 0 0 260 0 260 -725 0 -725 0 0 -2180z"/>
<path d="M2880 4665 c-255 -53 -421 -207 -489 -455 -37 -134 -43 -240 -38
-780 4 -560 6 -579 63 -692 57 -113 103 -144 674 -463 341 -190 447 -258 484
-308 20 -27 21 -42 24 -363 l3 -334 135 0 c73 0 134 -3 134 -8 0 -4 -131 -138
-290 -297 l-290 -290 -298 298 -297 297 138 0 137 0 0 150 0 150 -310 0 -310
0 0 -240 c0 -363 22 -508 101 -669 56 -113 154 -213 259 -264 143 -70 161 -72
580 -72 362 0 378 1 455 23 238 69 381 220 446 472 22 82 23 106 27 655 4 643
-1 724 -48 822 -61 123 -149 185 -670 465 -388 209 -477 266 -507 328 -22 43
-23 53 -23 342 l0 298 -135 0 c-74 0 -135 3 -135 8 0 11 574 582 585 582 12 0
585 -571 585 -583 0 -4 -61 -7 -135 -7 l-135 0 0 -145 0 -145 311 0 311 0 -5
323 c-5 342 -10 386 -61 520 -70 187 -215 315 -421 374 -82 23 -753 30 -855 8z"/>
</g>
</svg>
